<?xml version='1.0' encoding='UTF-8'?>
<svg xmlns="http://www.w3.org/2000/svg" viewBox="0 0 1254 1254" width="512" height="512" role="img" aria-label="Mairoute abstract network routing logo mark safe-fit no-crop">
  <g transform="translate(-176.583395,-134.255778) scale(1.278563656)">
    <g shape-rendering="geometricPrecision">
    <path d="M0 0 C14.52416522 9.52246594 24.04532146 22.68128584 28.26953125 39.578125 C30.76880318 55.55477922 27.56259855 72.49589847 18.83203125 86.15234375 C16.89624322 88.65998134 14.88207273 90.96634867 12.6875 93.25 C11.67042969 94.30960938 11.67042969 94.30960938 10.6328125 95.390625 C-3.94458873 109.38065841 -19.79174032 110.95983096 -39.0546875 110.62109375 C-54.26204448 109.98876654 -65.91769121 101.48052672 -76.2421875 90.73046875 C-82.59398262 83.12029912 -85.45108273 75.78805755 -88.3125 66.25 C-100.1925 66.25 -112.0725 66.25 -124.3125 66.25 C-122.58251608 76.8233723 -122.58251608 76.8233723 -119.5625 86.875 C-119.29864502 87.60082275 -119.03479004 88.32664551 -118.76293945 89.07446289 C-113.77071698 102.36579161 -105.30132314 112.36541959 -94.3125 121.25 C-94.81488126 125.5038322 -97.20800984 127.5279336 -100.15132141 130.48323059 C-100.65979762 130.9977979 -101.16827382 131.51236521 -101.6921584 132.04252547 C-103.40005714 133.76709061 -105.11851308 135.48072909 -106.8371582 137.19458008 C-108.06293757 138.42769747 -109.2880915 139.66143684 -110.51266479 140.89575195 C-113.84231109 144.24764652 -117.18157148 147.58980379 -120.52330422 150.92964387 C-123.3094066 153.71562674 -126.09115829 156.50593401 -128.87302655 159.29614371 C-135.43295574 165.87531747 -142.00104102 172.44627159 -148.57397461 179.01245117 C-155.36343206 185.79526072 -162.13798017 192.59270831 -168.90555507 199.39734536 C-174.71065132 205.23308077 -180.5253112 211.059165 -186.34769696 216.87765044 C-189.82774291 220.35562359 -193.30386328 223.83731108 -196.77065468 227.32850075 C-200.02883124 230.60884731 -203.29872089 233.87703743 -206.57818222 237.13610077 C-207.78223721 238.33672885 -208.98200463 239.54167381 -210.17720985 240.75111198 C-211.80446855 242.39641019 -213.4462239 244.02568292 -215.09272766 245.65168762 C-216.00953465 246.56920712 -216.92634165 247.48672663 -217.87093067 248.43204975 C-220.3125 250.25 -220.3125 250.25 -222.47386456 250.18197155 C-225.46924618 248.66366597 -227.62193716 246.28345324 -229.92578125 243.89453125 C-230.45842087 243.35527512 -230.99106049 242.81601898 -231.5398407 242.26042175 C-233.24214725 240.53474115 -234.93400298 238.79925822 -236.625 237.0625 C-238.84645268 234.79441438 -241.07221917 232.53063073 -243.30078125 230.26953125 C-243.8339798 229.72765167 -244.36717834 229.18577209 -244.91653442 228.62747192 C-248.56259573 224.94471513 -252.33167023 221.56134999 -256.3125 218.25 C-257.99069354 216.59494049 -259.65618856 214.92695795 -261.3125 213.25 C-262.11955887 212.44072052 -262.92661774 211.63144104 -263.75813293 210.79763794 C-264.61114487 209.9416098 -265.4641568 209.08558167 -266.34301758 208.20361328 C-271.18190559 203.34838097 -276.02333893 198.49569525 -280.86623096 193.64445686 C-283.78593391 190.71953842 -286.70469389 187.79369165 -289.62133789 184.86572266 C-292.4583544 182.0177675 -295.29787295 179.17232843 -298.13907433 176.32854843 C-299.21350707 175.25228439 -300.28706742 174.17514861 -301.35968971 173.09708023 C-306.65322199 167.77773041 -311.97151029 162.54546495 -317.67591858 157.66296387 C-319.70760816 155.90887823 -321.60870671 154.05208051 -323.48828125 152.13671875 C-324.17083984 151.44642578 -324.85339844 150.75613281 -325.55664062 150.04492188 C-326.23919922 149.34947266 -326.92175781 148.65402344 -327.625 147.9375 C-329.01456438 146.52241561 -330.406397 145.10955401 -331.80078125 143.69921875 C-332.40446533 143.08393311 -333.00814941 142.46864746 -333.63012695 141.8347168 C-335.42941651 140.05163866 -335.42941651 140.05163866 -338.3125 138.25 C-336.97250502 135.243182 -335.51404709 133.25237391 -333.125 131 C-330.65569667 128.66370365 -328.4090145 126.21904396 -326.19921875 123.640625 C-321.01744549 117.67177309 -315.32282104 112.21539088 -309.6953125 106.671875 C-305.29932142 102.31596894 -301.07837999 97.90823064 -297.05078125 93.2109375 C-293.13647581 88.79524912 -288.83689166 84.73817714 -284.62890625 80.60546875 C-281.31368261 77.32621499 -278.08067659 74.04171049 -275.0546875 70.4921875 C-270.01809532 64.63682476 -264.42915263 59.29831207 -258.9375 53.875 C-256.7601508 51.72422699 -254.58613898 49.57015877 -252.4140625 47.4140625 C-251.91621246 46.9245108 -251.41836243 46.43495911 -250.90542603 45.93057251 C-248.27433578 43.3442157 -248.27433578 43.3442157 -246.3125 40.25 C-194.1725 40.25 -142.0325 40.25 -88.3125 40.25 C-87.6525 36.95 -86.9925 33.65 -86.3125 30.25 C-80.90159948 15.91283683 -70.84655756 4.47876949 -57.0859375 -2.3515625 C-54.18417825 -3.58283007 -51.28840124 -4.7121857 -48.3125 -5.75 C-47.42175781 -6.11351562 -46.53101563 -6.47703125 -45.61328125 -6.8515625 C-30.17841132 -11.0527697 -13.69556685 -7.57807254 0 0 Z" fill="#02377A" transform="translate(1060.3125,556.75)"/>
    <path d="M0 0 C-0.84315875 4.18239247 -2.59337606 5.92893464 -5.6640625 8.921875 C-6.13435883 9.38555481 -6.60465515 9.84923462 -7.08920288 10.32696533 C-8.5941856 11.80859836 -10.10891332 13.2797384 -11.625 14.75 C-13.60022738 16.67836628 -15.57105568 18.61114141 -17.5390625 20.546875 C-18.01881531 21.01794678 -18.49856812 21.48901855 -18.99285889 21.97436523 C-22.28934627 25.23424239 -25.36546789 28.62057429 -28.37255859 32.14550781 C-31.83149549 36.08701466 -35.65016533 39.68830625 -39.39453125 43.35546875 C-42.49274853 46.41519886 -45.47941099 49.50444212 -48.3125 52.8125 C-53.60839027 58.954303 -59.49062009 64.53318558 -65.26171875 70.22265625 C-70.95373451 75.86171132 -70.95373451 75.86171132 -76.3125 81.8125 C-82.21379367 88.70314868 -88.87439358 94.92649213 -95.32080078 101.30029297 C-103.99902408 109.88141125 -103.99902408 109.88141125 -112.16601562 118.94335938 C-117.03584608 124.40441525 -122.39679098 129.44290152 -127.60253906 134.58203125 C-133.03799267 139.95416566 -138.39860251 145.32245427 -143.36328125 151.140625 C-147.02996245 155.30611486 -151.07942248 159.11621516 -155.0390625 163 C-159.03723551 166.95186212 -162.79155729 170.98874214 -166.359375 175.3359375 C-168 177 -168 177 -172 179 C-213.25 137.75 -254.5 96.5 -297 54 C-292 48 -292 48 -289.25 45.875 C-279.62119672 38.10743447 -273.23001145 25.87084485 -269.41943359 14.30737305 C-269.15262787 13.49987106 -268.88582214 12.69236908 -268.6109314 11.86039734 C-268.40932404 11.24646622 -268.20771667 10.6325351 -268 10 C-267.22195007 9.9521788 -266.44390015 9.9043576 -265.64227295 9.85508728 C-251.09020192 8.95433526 -236.54800276 7.99902336 -222.015625 6.81640625 C-148.05087836 0.84915274 -74.18278929 -0.55334384 0 0 Z" fill="#023679" transform="translate(588,627)"/>
    <path d="M0 0 C5.36934049 4.48333665 10.36481136 9.22190844 15.30273438 14.17333984 C16.10205887 14.97091202 16.90138336 15.76848419 17.72492981 16.59022522 C20.35038037 19.21129674 22.97218193 21.83598318 25.59375 24.4609375 C27.4277104 26.29422366 29.26181918 28.12736141 31.09606934 29.96035767 C34.93400137 33.79681801 38.77017345 37.63502566 42.60498047 41.47460938 C47.0207298 45.89579594 51.44006445 50.31337409 55.86128569 54.72908819 C60.1355841 58.99827802 64.40703708 63.27030212 68.67732239 67.54350662 C70.48499767 69.35184648 72.29340917 71.15945074 74.10258484 72.96628952 C76.63658063 75.49773012 79.16732218 78.03238138 81.69726562 80.56787109 C82.43721268 81.30579391 83.17715973 82.04371674 83.93952942 82.80400085 C87.95278309 86.83347027 91.79500734 90.95470812 95.49666595 95.27292824 C97.63821962 97.73320436 99.92829285 100.02284096 102.25 102.3125 C102.71180664 102.77052002 103.17361328 103.22854004 103.64941406 103.70043945 C105.09712722 105.13616175 106.54808857 106.56852432 108 108 C113.5871403 113.50850092 119.09950883 119.01409842 124.203125 124.98046875 C127.93636474 129.17630559 132.00057071 133.06026368 136 137 C141.28198852 142.20315287 146.43699809 147.41335535 151.26220703 153.04394531 C155.15679338 157.42768033 159.44927559 161.44458299 163.65429688 165.52734375 C164.34458984 166.20667969 165.03488281 166.88601563 165.74609375 167.5859375 C166.37185303 168.1948584 166.9976123 168.8037793 167.64233398 169.43115234 C169 171 169 171 169 173 C149.24140427 173.08556966 129.50121898 172.87518825 109.74707198 172.46007586 C105.93056584 172.38040161 102.11399761 172.30379488 98.29743958 172.22665405 C91.85230132 172.09591062 85.40721626 171.96276047 78.9621582 171.828125 C72.52275698 171.69363488 66.08331053 171.56170969 59.64379883 171.43261719 C25.0555039 170.73885856 -9.53002224 169.97687838 -44.11228347 169.02510786 C-46.41025435 168.96200743 -48.70824261 168.89957592 -51.00623512 168.83726883 C-67.34622592 168.39250743 -83.67632717 167.87532707 -100 167 C-100.85670153 165.17408721 -101.71340307 163.34817441 -102.5701046 161.52226162 C-108.24637195 149.51551421 -115.88781405 140.58863679 -125.91015625 131.99609375 C-126.59980469 131.33738281 -127.28945313 130.67867187 -128 130 C-128 129.34 -128 128.68 -128 128 C-126.49963856 126.53824234 -126.49963856 126.53824234 -124.44380188 124.84576416 C-120.27907878 121.3013132 -116.59008404 117.49499199 -112.89916992 113.46777344 C-103.23967635 103.07745469 -93.2012633 93.07131368 -83.15716195 83.05576801 C-80.52318718 80.42817001 -77.89216434 77.79761909 -75.26078796 75.16741943 C-70.30043496 70.21014187 -65.33754649 65.25541113 -60.37367553 60.30165648 C-54.73118376 54.67041233 -49.09159001 49.03626957 -43.45222151 43.40189791 C-33.81591466 33.77422541 -24.17750021 24.14866778 -14.53665161 14.52554321 C-10.6894381 10.68535405 -6.84280277 6.84460304 -3 3 C-2.00001899 1.99998101 -1.00002266 0.99997734 0 0 Z" fill="#033779" transform="translate(419,406)"/>
    <path d="M0 0 C2.43534948 1.18712926 3.97969481 2.59856645 5.89601421 4.51910782 C6.66549892 5.28302338 7.43498363 6.04693893 8.22778606 6.83400345 C9.06267559 7.67810776 9.89756512 8.52221207 10.75775433 9.39189529 C12.08775715 10.71883156 12.08775715 10.71883156 13.44462872 12.07257462 C15.87597868 14.50142965 18.30043777 16.93679398 20.72195554 19.37542844 C23.26271291 21.93124006 25.81159194 24.47892745 28.35948467 27.02762222 C32.64246118 31.31429291 36.9197615 35.60655978 41.1933012 39.90263748 C46.66037247 45.39848436 52.13657925 50.88513099 57.61582184 56.36884022 C62.34215067 61.09916862 67.06421957 65.83374317 71.78562236 70.56898761 C73.29452529 72.08196784 74.80399823 73.5943776 76.31355 75.10671043 C79.14313355 77.94215625 81.96826698 80.78199707 84.79291058 83.62236404 C85.62172741 84.45229874 86.45054424 85.28223343 87.30447674 86.13731766 C91.50724888 90.37093833 95.56517393 94.67174529 99.44113827 99.20755291 C102.01155168 102.15499902 104.7822193 104.89631232 107.559268 107.64751053 C108.14865658 108.23548416 108.73804516 108.82345779 109.345294 109.42924881 C111.19680043 111.27523414 113.05178241 113.11767945 114.90692425 114.96001053 C116.17603798 116.22409903 117.44492013 117.48842009 118.71356487 118.75297928 C121.79618745 121.82467777 124.88192852 124.89321061 127.96942425 127.96001053 C125.13643127 131.44599834 122.39009088 134.61348437 118.9108305 137.47954178 C115.61947933 140.2551168 113.34955566 143.1374453 110.90692425 146.64751053 C110.49893597 147.20889725 110.09094769 147.77028397 109.67059612 148.3486824 C107.21254847 151.82412102 105.1983376 155.38203673 103.31537151 159.20146561 C102.87355038 160.09473053 102.43172924 160.98799545 101.97651958 161.90832901 C101.64417812 162.58538391 101.31183666 163.26243881 100.96942425 163.96001053 C81.68881505 164.31156932 62.40886254 164.57548142 43.12570477 164.73719311 C34.17049839 164.81430104 25.2172916 164.91927114 16.26336956 165.09160233 C8.45215973 165.24186773 0.64239857 165.33805703 -7.17021656 165.37133795 C-11.30180635 165.39077387 -15.42925495 165.43589042 -19.55950642 165.54596138 C-48.00465575 166.27498442 -48.00465575 166.27498442 -56.81326008 158.75331593 C-59.30524625 156.23302463 -61.53450619 153.62301757 -63.64487934 150.77699852 C-65.68340398 148.10399254 -68.03138002 145.89695107 -70.46807575 143.58501053 C-71.99168571 142.04608791 -73.51263992 140.50453018 -75.03057575 138.96001053 C-79.96706511 133.94055496 -84.93951454 129.07737676 -90.28008747 124.48784256 C-92.49191268 122.55735411 -94.54895458 120.5036923 -96.59307575 118.39751053 C-100.2474783 114.69235239 -104.02662532 111.28243748 -108.03057575 107.96001053 C-106.53309844 104.47328099 -104.53426922 102.20586223 -101.86874104 99.52402115 C-100.99670033 98.64200531 -100.12465961 97.75998947 -99.22619343 96.85124588 C-98.25761668 95.88177341 -97.28892381 94.91241693 -96.32012653 93.94316483 C-95.30131027 92.91672553 -94.2828978 91.88988531 -93.2648592 90.86267471 C-90.50119279 88.07707964 -87.73099571 85.29807033 -84.95888853 82.5208776 C-83.22812601 80.78647175 -81.49866891 79.05077492 -79.76964664 77.31463432 C-73.74043037 71.26093614 -67.70552623 65.21296874 -61.66582966 59.16972733 C-56.03035721 53.53061325 -50.40817128 47.87848381 -44.79182923 42.22032231 C-39.97172932 37.3655903 -35.14211372 32.52046423 -30.3050164 27.68266803 C-27.41493242 24.79178928 -24.52900517 21.89703049 -21.65274143 18.9923954 C-18.95011186 16.26370414 -16.23590125 13.54710252 -13.51216984 10.83947945 C-12.5129007 9.8420339 -11.51791969 8.84027172 -10.52752399 7.83401489 C-9.17868842 6.46489828 -7.81297167 5.11247312 -6.44637775 3.7610817 C-5.30540732 2.61709427 -5.30540732 2.61709427 -4.14138699 1.44999599 C-2.03057575 -0.03998947 -2.03057575 -0.03998947 0 0 Z" fill="#02367A" transform="translate(839.0305757522583,407.03998947143555)"/>
    <path d="M0 0 C4.02879773 1.34293258 4.72476583 3.81447731 6.5625 7.375 C11.86362807 17.0498983 17.7511462 24.37440644 27.73979187 29.3948822 C31.05027021 31.45251883 33.45185902 33.39866883 34.74054551 37.16341901 C35.96311201 44.0010393 35.62683471 50.95487523 35.47583008 57.86938477 C35.47216087 60.21550796 35.47422586 62.56164609 35.48158264 64.90776062 C35.48530801 71.2637107 35.4089651 77.61646199 35.31812119 83.97166944 C35.24501765 89.94413617 35.2320109 95.91660938 35.21864685 101.88943838 C35.19023976 113.71473568 35.10385275 125.53886292 34.98071289 137.36352539 C34.86126589 148.84556245 34.76930662 160.32728099 34.71411133 171.80981445 C34.70898822 172.87262511 34.70898822 172.87262511 34.70376161 173.95690668 C34.68679533 177.51167794 34.67036731 181.06645143 34.65420687 184.62122643 C34.5195809 214.08157163 34.28976548 243.5407733 34 273 C32.87238353 272.03736442 31.74531354 271.07408867 30.61847687 270.11054039 C29.67693402 269.30600648 29.67693402 269.30600648 28.71637011 268.48521936 C26.96831137 266.97257901 25.29021449 265.41688915 23.65429688 263.78369141 C23.09681763 263.22936432 22.53933838 262.67503723 21.96496582 262.10391235 C21.3887146 261.5256369 20.81246338 260.94736145 20.21875 260.3515625 C19.60157104 259.73534027 18.98439209 259.11911804 18.34851074 258.48422241 C17.05321515 257.18960252 15.75916221 255.89373823 14.46630859 254.59667969 C12.5085948 252.63361828 10.54561029 250.67594262 8.58203125 248.71875 C7.31478354 247.45084122 6.0478462 246.18262213 4.78125 244.9140625 C4.20499878 244.33983551 3.62874756 243.76560852 3.03503418 243.17398071 C0.13227376 240.25480718 -2.65158932 237.28150647 -5.3359375 234.15966797 C-9.46721039 229.38798912 -13.9230669 224.97007712 -18.40625 220.53125 C-19.28978149 219.65150513 -20.17331299 218.77176025 -21.08361816 217.86535645 C-23.88665133 215.07445494 -26.69279916 212.28670768 -29.5 209.5 C-33.2010055 205.82601262 -36.89831822 202.14834398 -40.59375 198.46875 C-41.43248657 197.63831177 -42.27122314 196.80787354 -43.13537598 195.95227051 C-46.61755018 192.48451525 -50.03833788 189.02020466 -53.22485352 185.27734375 C-58.72680475 178.88248553 -64.83509489 173.04260114 -70.80859375 167.09375 C-72.14402327 165.7601887 -73.47922985 164.42640412 -74.81422424 163.09240723 C-78.30539128 159.60503352 -81.79955234 156.1206751 -85.29437256 152.63696289 C-88.86930632 149.07231217 -92.44136294 145.50478083 -96.01367188 141.9375 C-103.00632174 134.95553122 -110.00214201 127.97674853 -117 121 C-116.0444276 119.87741632 -115.08775329 118.75577055 -114.13061523 117.63452148 C-113.59798569 117.00980453 -113.06535614 116.38508759 -112.5165863 115.74143982 C-110.22342959 113.108293 -107.73186533 110.7091268 -105.22265625 108.28515625 C-103.35318411 106.36311547 -101.61484745 104.40487735 -99.87109375 102.37109375 C-94.69402231 96.40955477 -89.00419742 90.95935865 -83.3828125 85.421875 C-82.53460938 84.58140625 -81.68640625 83.7409375 -80.8125 82.875 C-80.05582031 82.12992187 -79.29914063 81.38484375 -78.51953125 80.6171875 C-76.525799 78.54617881 -74.64598899 76.45055899 -72.7734375 74.2734375 C-68.66761514 69.54558774 -64.26103185 65.15334013 -59.8125 60.75 C-58.95116455 59.89245117 -58.0898291 59.03490234 -57.20239258 58.15136719 C-53.54986017 54.51505061 -49.89136365 50.88475629 -46.23339844 47.25390625 C-43.54934844 44.58802403 -40.86836759 41.9190819 -38.1875 39.25 C-37.37063721 38.44143555 -36.55377441 37.63287109 -35.7121582 36.79980469 C-31.46015285 32.56585923 -27.3704203 28.25990025 -23.47146606 23.69755554 C-21.38311071 21.2883262 -19.14509211 19.04974512 -16.875 16.8125 C-16.06804687 16.01457031 -15.26109375 15.21664063 -14.4296875 14.39453125 C-13.62789062 13.60433594 -12.82609375 12.81414062 -12 12 C-10.33206446 10.33460317 -8.66532959 8.66800267 -7 7 C-4.66666667 4.66666667 -2.33333333 2.33333333 0 0 Z" fill="#02B9B4" transform="translate(553,268)"/>
    <path d="M0 0 C0.32717456 28.51132482 0.5739846 57.02236799 0.72537041 85.53519249 C0.79753331 98.77458861 0.89589685 112.0128178 1.05615234 125.25146484 C1.19578051 136.79160615 1.28603456 148.33090237 1.31723893 159.87186491 C1.3354782 165.98217309 1.378272 172.09006391 1.48022079 178.19959641 C1.57546569 183.95416338 1.6045237 189.70532529 1.58350754 195.46060562 C1.58735006 197.56904382 1.61508479 199.67759921 1.66887665 201.78535461 C2.04540741 217.30421436 2.04540741 217.30421436 -1.36971045 221.80523729 C-5.13337925 225.36838999 -9.4377322 227.61342912 -14 230 C-18.05744744 233.00370926 -21.2531559 236.36498482 -24.375 240.3125 C-24.85106689 240.91336426 -25.32713379 241.51422852 -25.81762695 242.13330078 C-30.71653717 248.55861701 -33.94642691 255.55886967 -37 263 C-40.006818 261.66000502 -41.99762609 260.20154709 -44.25 257.8125 C-46.53530837 255.39708744 -48.91932365 253.2023143 -51.44824219 251.04956055 C-56.34452273 246.77708796 -60.91776817 242.19619388 -65.49072266 237.58444214 C-67.0369274 236.02526273 -68.58641896 234.46941379 -70.13671875 232.91430664 C-73.98344225 229.05434197 -77.82464716 225.18890098 -81.66601562 221.3236084 C-84.92425696 218.04550558 -88.1846299 214.76955008 -91.44775391 211.49630737 C-92.96076052 209.97690534 -94.4706797 208.45448297 -95.98046875 206.93188477 C-100.5982993 202.28978708 -105.27432148 197.788034 -110.24804688 193.52709961 C-112.8754089 191.236945 -115.30066226 188.79297339 -117.75 186.3125 C-118.50361816 185.5532019 -118.50361816 185.5532019 -119.27246094 184.77856445 C-121.3795795 182.65540351 -123.48054213 180.52619158 -125.58203125 178.39746094 C-131.03527738 172.87993958 -136.48170396 167.41901589 -142.38671875 162.37744141 C-144.33046332 160.71784594 -146.18243726 158.98402614 -148 157.1875 C-148.5775 156.62417969 -149.155 156.06085938 -149.75 155.48046875 C-151 154 -151 154 -151 152 C-149.59643314 150.8360665 -148.18897358 149.67656207 -146.76407623 148.53884125 C-144.883797 146.89863365 -143.32522221 145.15619884 -141.71228027 143.25354004 C-138.3475227 139.35817723 -134.82042129 135.6907835 -131.16601562 132.06835938 C-130.52274826 131.42655228 -129.8794809 130.78474518 -129.21672058 130.12348938 C-127.83417528 128.74471885 -126.45047714 127.36710349 -125.0657196 125.99055481 C-122.86809039 123.80581418 -120.67370966 121.61785574 -118.48010254 119.42907715 C-113.03407592 113.9963441 -107.58259647 108.56909338 -102.13128662 103.1416626 C-97.51447326 98.54465109 -92.89976178 93.94554865 -88.2877655 89.34370422 C-86.13681369 87.19918491 -83.98284828 85.05772516 -81.82873535 82.91638184 C-80.49700216 81.58828469 -79.16541115 80.26004496 -77.83398438 78.93164062 C-76.94848152 78.05388725 -76.94848152 78.05388725 -76.04508972 77.15840149 C-72.39660894 73.51037734 -68.9693195 69.72192794 -65.59429169 65.82013702 C-63.66068173 63.61261434 -61.63546095 61.52203658 -59.55273438 59.45507812 C-58.7550061 58.66065308 -57.95727783 57.86622803 -57.13537598 57.04772949 C-56.2966394 56.21729126 -55.45790283 55.38685303 -54.59375 54.53125 C-53.26845276 53.21163269 -53.26845276 53.21163269 -51.91638184 51.86535645 C-48.6402768 48.60343055 -45.3596502 45.34607436 -42.07867432 42.08905029 C-38.85169462 38.8851274 -35.6286192 35.67730884 -32.40625 32.46875 C-31.56751343 31.63831177 -30.72877686 30.80787354 -29.86462402 29.95227051 C-25.56217163 25.66763365 -21.43167471 21.30746758 -17.47344971 16.70275879 C-15.74456869 14.70481659 -13.93656508 12.80734844 -12.0703125 10.9375 C-11.420625 10.28652344 -10.7709375 9.63554688 -10.1015625 8.96484375 C-9.44929687 8.31644531 -8.79703125 7.66804687 -8.125 7 C-7.44953125 6.32066406 -6.7740625 5.64132812 -6.078125 4.94140625 C-5.43617188 4.30074219 -4.79421875 3.66007813 -4.1328125 3 C-3.55418457 2.4225 -2.97555664 1.845 -2.37939453 1.25 C-1 0 -1 0 0 0 Z" fill="#02B9B4" transform="translate(587,671)"/>
    <path d="M0 0 C3.45271705 1.48510476 5.6816242 3.43872511 8.32202148 6.0949707 C9.16647324 6.93957352 10.01092499 7.78417633 10.88096619 8.65437317 C11.78520828 9.56893784 12.68945038 10.4835025 13.62109375 11.42578125 C14.56703014 12.37545287 15.51341284 13.32468013 16.46022034 14.27348328 C18.95005745 16.77094426 21.43383779 19.2743449 23.91638184 21.77905273 C26.43090269 24.3139545 28.95101118 26.84328695 31.47070312 29.37304688 C35.96196268 33.88362019 40.44833984 38.39900288 44.93045044 42.91867065 C46.54783175 44.54525803 48.17417821 46.16293227 49.80395508 47.77709961 C52.24577153 50.24877708 54.56724614 52.80738863 56.890625 55.390625 C63.58951738 62.76412191 70.66973768 69.74557829 77.75 76.75 C92.11296092 90.96081859 92.11296092 90.96081859 97.28662109 97.05957031 C101.12386518 101.40531212 105.32064717 105.42167783 109.4375 109.5 C110.35982422 110.4178125 111.28214844 111.335625 112.23242188 112.28125 C114.48599899 114.52315055 116.74189075 116.762666 119 119 C116.48226358 124.29631941 113.0320456 128.20315979 108.58203125 131.9453125 C103.28620442 136.53563363 98.3599154 141.4900125 93.41723633 146.45239258 C91.80857665 148.06643648 90.19460752 149.67503303 88.58007812 151.28320312 C87.53874156 152.3252002 86.49771509 153.36750728 85.45703125 154.41015625 C84.52866455 155.33965088 83.60029785 156.26914551 82.64379883 157.22680664 C80.77676668 159.1852163 79.04627697 161.11510192 77.33862305 163.20092773 C75.24928305 165.70163585 73.10065274 167.59375096 70.56837463 169.62145996 C68.87152288 171.11292637 67.48279598 172.70085968 66.03100586 174.43164062 C61.09519142 180.13646202 55.72272247 185.40154695 50.37890625 190.71875 C49.26767877 191.82810833 48.15667488 192.93769067 47.04588318 194.04748535 C44.14655629 196.94302616 41.24423728 199.83554907 38.34124756 202.72741699 C35.36953694 205.68882864 32.40071733 208.65313554 29.43164062 211.6171875 C23.6238918 217.4142681 17.81297327 223.2081582 12 229 C8.69192748 227.55746715 6.52804619 225.76706451 3.99755859 223.20874023 C3.22350677 222.43130966 2.44945496 221.65387909 1.65194702 220.85289001 C0.82578888 220.01327225 -0.00036926 219.17365448 -0.8515625 218.30859375 C-1.70680511 217.44814957 -2.56204773 216.58770538 -3.44320679 215.70118713 C-6.17525338 212.95132102 -8.90052506 210.19486646 -11.625 207.4375 C-14.35747547 204.67744073 -17.0913786 201.91883491 -19.82821655 199.1631012 C-21.53150933 197.44751612 -23.23212241 195.72926575 -24.92984009 194.00816345 C-25.69758759 193.23388504 -26.46533508 192.45960663 -27.25634766 191.66186523 C-28.27083481 190.63499855 -28.27083481 190.63499855 -29.30581665 189.58738708 C-30.92586429 187.91823344 -30.92586429 187.91823344 -33 187 C-33 136.18 -33 85.36 -33 33 C-28.545 30.525 -28.545 30.525 -24 28 C-13.11461577 20.42291882 -6.72013957 11.3258427 0 0 Z" fill="#02BAB5" transform="translate(703,269)"/>
    <path d="M0 0 C0.99 0 1.98 0 3 0 C4.35156675 1.65191491 5.679762 3.32294092 7 5 C8.13738006 6.02660702 9.2969895 7.02881062 10.47070312 8.01367188 C15.31031108 12.19561753 19.8040252 16.68980037 24.30552673 21.23036194 C25.81812332 22.75593977 27.33401202 24.27818086 28.85070801 25.79968262 C32.61395801 29.57616982 36.37168668 33.35813511 40.12957764 37.13995361 C43.31735668 40.34759868 46.50727042 43.55309295 49.69993591 46.75587463 C51.17970556 48.24203689 52.65638565 49.73121996 54.13293457 51.22058105 C58.73520924 55.83947849 63.38306684 60.31591969 68.33435059 64.5592041 C70.38991135 66.33727546 72.31522004 68.21706599 74.21875 70.15625 C74.92386719 70.86910156 75.62898437 71.58195313 76.35546875 72.31640625 C77.78515625 73.77213542 79.21484375 75.22786458 80.64453125 76.68359375 C84.64402269 80.7269553 88.73389412 84.55856326 93.04443359 88.26708984 C96.3690337 91.2131587 99.45537043 94.39043564 102.5625 97.5625 C107.19717571 102.29343066 111.91494851 106.75264039 117 111 C116.43426383 114.82726845 114.80085345 116.57204088 112.09922791 119.26826477 C111.25958496 120.11347687 110.41994202 120.95868896 109.55485535 121.82951355 C108.62659439 122.74855972 107.69833344 123.6676059 106.74194336 124.61450195 C105.75907727 125.598159 104.77686454 126.58246926 103.79525757 127.56738281 C101.12603136 130.2417469 98.44755663 132.90667012 95.76722026 135.56989312 C92.95916695 138.36289921 90.15923085 141.16402011 87.35829163 143.9641571 C82.64791633 148.67083782 77.93194007 153.37184477 73.2121582 158.0690918 C67.17149991 164.08096557 61.14004755 170.1019864 55.11153316 176.12603474 C49.91409855 181.3194722 44.71241604 186.50864919 39.51006246 191.69715858 C37.84632204 193.35681884 36.18315423 195.01705128 34.5200634 196.67736244 C31.89351008 199.29898008 29.26430495 201.91791133 26.63311386 204.53487396 C25.21843391 205.94295371 23.80609158 207.35338084 22.3938446 208.76390076 C8.06252118 223 8.06252118 223 5 223 C4.70609375 222.23429687 4.70609375 222.23429687 4.40625 221.453125 C-2.32689958 205.0846062 -14.17793118 190.74876708 -30.19750977 182.87011719 C-31.26848656 182.34136993 -31.26848656 182.34136993 -32.36109924 181.80194092 C-33.17235512 181.40498016 -33.17235512 181.40498016 -34 181 C-34.65890487 162.44984995 -35.15010171 143.90212126 -35.45074081 125.34263229 C-35.59415956 116.72113312 -35.78970675 108.10703668 -36.11230469 99.49023438 C-38.41772551 36.70341887 -38.41772551 36.70341887 -26.03255081 22.1926918 C-21.00640721 16.94284468 -15.28015671 12.75065314 -9.0802002 8.99816895 C-5.18087772 6.46862392 -2.86529558 3.60629929 0 0 Z" fill="#02BAB4" transform="translate(704,711)"/>
    <path d="M0 0 C9.79164954 8.0518704 18.03459348 19.21600443 20 32 C21.24890897 48.92183704 17.55963062 64.60007166 6.82421875 78.125 C0.98165915 84.13020045 -6.33078989 88.71319567 -14 92 C-14.99 92 -15.98 92 -17 92 C-17 140.84 -17 189.68 -17 240 C-21.04876839 237.97561581 -23.6207623 235.62057308 -26.71875 232.44140625 C-27.25850464 231.89645004 -27.79825928 231.35149384 -28.35437012 230.7900238 C-30.07441535 229.05221298 -31.78761745 227.30785927 -33.5 225.5625 C-35.21322365 223.82158156 -36.92791166 222.0821721 -38.64562988 220.34568787 C-39.71249518 219.26665024 -40.77667638 218.18495022 -41.83776855 217.10023499 C-43.84548886 215.06560705 -45.71786475 213.18002669 -48.13541031 211.63742352 C-50 210 -50 210 -50.50780869 207.80362415 C-50.51149586 206.9435913 -50.51518303 206.08355844 -50.51898193 205.19746399 C-50.53289474 204.20888397 -50.54680756 203.22030396 -50.56114197 202.20176697 C-50.5561116 201.11851639 -50.55108124 200.03526581 -50.54589844 198.91918945 C-50.55623611 197.77758362 -50.56657379 196.63597778 -50.57722473 195.45977783 C-50.6067781 191.67747045 -50.60815461 187.89569529 -50.609375 184.11328125 C-50.6243481 181.49438956 -50.64107339 178.87550735 -50.65948486 176.25663757 C-50.70007005 170.06248719 -50.72039137 163.86844214 -50.73345876 157.67417926 C-50.74932038 150.62215415 -50.78773234 143.57030852 -50.82805204 136.51838744 C-50.91048523 122.01232924 -50.96455593 107.50624812 -51 93 C-51.68842987 92.73241379 -52.37685974 92.46482758 -53.08615112 92.18913269 C-53.98826324 91.83434341 -54.89037537 91.47955414 -55.81982422 91.11401367 C-56.71450409 90.76392746 -57.60918396 90.41384125 -58.53097534 90.05314636 C-63.42964742 87.96364974 -67.10418997 84.55620817 -71 81 C-71.70125 80.37738281 -72.4025 79.75476563 -73.125 79.11328125 C-82.15180253 70.13937014 -87.32105802 57.96413661 -87.69140625 45.32495117 C-87.67644084 34.26270498 -86.04056859 25.65886035 -80.0625 16.25 C-79.39347656 15.18265625 -78.72445312 14.1153125 -78.03515625 13.015625 C-74.54761067 7.84789912 -71.15461355 4.09921767 -66.125 0.375 C-65.11695313 -0.38039062 -64.10890625 -1.13578125 -63.0703125 -1.9140625 C-44.13182693 -14.7806672 -18.48824086 -12.74672178 0 0 Z" fill="#03BBB6" transform="translate(663,190)"/>
    <path d="M0 0 C0.66 0 1.32 0 2 0 C2 44.55 2 89.1 2 135 C3.65 135.33 5.3 135.66 7 136 C19.39841406 141.04342267 29.12874855 151.58366337 34.8125 163.5625 C40.77428681 177.72174368 40.38486618 191.98654955 34.6640625 206.35546875 C28.24494622 219.45985978 17.45602124 229.90515424 3.828125 235.2421875 C-11.51380238 240.27517273 -26.2062725 239.10374741 -40.6875 231.8125 C-53.7577823 223.94634845 -63.262094 211.58899799 -67.25 196.875 C-69.68792448 184.08697796 -68.74963423 169.16586705 -62.09375 157.72265625 C-60.16162968 155.03715319 -58.15284155 152.51024688 -56 150 C-55.33226562 149.13761719 -54.66453125 148.27523437 -53.9765625 147.38671875 C-48.82036659 141.16056123 -41.43787241 136.98571788 -34 134 C-33.01 134 -32.02 134 -31 134 C-31.02331642 132.10652077 -31.02331642 132.10652077 -31.04710388 130.17478943 C-31.18907827 118.2717671 -31.29397411 106.36891682 -31.3626852 94.46523952 C-31.39919842 88.34552629 -31.44871591 82.22649722 -31.52807617 76.10717773 C-31.60420106 70.20028535 -31.64600467 64.2940505 -31.6641407 58.3867054 C-31.67706293 56.13439648 -31.70229782 53.88212309 -31.7401104 51.63009453 C-31.79102274 48.4719286 -31.79791966 45.31647005 -31.79467773 42.15795898 C-31.81984467 41.22935059 -31.8450116 40.30074219 -31.87094116 39.34399414 C-31.81520717 34.31734844 -31.23102043 31.67771595 -27.61439514 28.06044006 C-26.41300806 27.03627822 -25.20840033 26.01587748 -24 25 C-23.09954263 23.98025936 -22.22245367 22.93919769 -21.375 21.875 C-19.04887291 19.05916194 -16.61200455 16.55126026 -14 14 C-13.33226562 13.31035156 -12.66453125 12.62070312 -11.9765625 11.91015625 C-11.26242187 11.17667969 -10.54828125 10.44320312 -9.8125 9.6875 C-8.80123047 8.64142578 -8.80123047 8.64142578 -7.76953125 7.57421875 C-6 6 -6 6 -4 6 C-3.71125 5.38125 -3.4225 4.7625 -3.125 4.125 C-2 2 -2 2 0 0 Z" fill="#04BBB5" transform="translate(644,773)"/>
    <path d="M0 0 C11.35872048 9.09383966 19.90396493 19.58234915 23.640625 33.8203125 C23.89875977 34.79500488 24.15689453 35.76969727 24.42285156 36.77392578 C24.70854004 37.87583252 24.70854004 37.87583252 25 39 C37.20780996 39.4725854 49.41617634 39.92938726 61.625 40.375 C62.55410061 40.40891972 63.48320122 40.44283943 64.44045639 40.47778702 C97.05918851 41.66387066 129.67910736 42.52506287 162.3125 43.1875 C163.36377327 43.20884758 164.41504654 43.23019516 165.49817657 43.25218964 C178.33192194 43.51185553 191.16584854 43.7612716 204 44 C204 44.33 204 44.66 204 45 C203.0011377 45.03963867 202.00227539 45.07927734 200.97314453 45.12011719 C153.67192716 47.03082203 106.51616422 50.48871962 59.39599609 54.98144531 C58.72759642 55.04507295 58.05919674 55.10870058 57.37054253 55.17425632 C54.25190455 55.47138331 51.13350792 55.77069021 48.01547241 56.07408142 C40.01794268 56.84334547 32.01622509 57.46030996 24 58 C23.96471191 58.67482422 23.92942383 59.34964844 23.89306641 60.04492188 C23.10907247 73.15608327 15.69192623 85.26515945 6.21484375 94.16015625 C-8.19436884 106.1297138 -24.5794156 110.44427709 -43 109 C-57.988792 106.92988207 -71.16077533 99.24254267 -80.8984375 87.76171875 C-92.73817347 71.96678713 -94.32841788 55.23140352 -93 36 C-92.21217346 30.92591412 -90.43267192 26.51430004 -88 22 C-87.48050781 21.02417969 -86.96101562 20.04835938 -86.42578125 19.04296875 C-78.5882276 5.68806964 -66.73052878 -3.93768782 -51.875 -8.5 C-34.31189727 -12.55580929 -14.76056431 -11.10744806 0 0 Z" fill="#043779" transform="translate(261,559)"/>
  </g>
  </g>
</svg>
